<?xml version="1.0" encoding="UTF-8" standalone="no"?>
<svg
   height="32"
   viewBox="0 0 32 32"
   width="32"
   version="1.1"
   id="svg4"
   sodipodi:docname="favicon.svg"
   inkscape:version="1.2.2 (b0a8486541, 2022-12-01)"
   inkscape:export-filename="favicon.png"
   inkscape:export-xdpi="96"
   inkscape:export-ydpi="96"
   xmlns:inkscape="http://www.inkscape.org/namespaces/inkscape"
   xmlns:sodipodi="http://sodipodi.sourceforge.net/DTD/sodipodi-0.dtd"
   xmlns="http://www.w3.org/2000/svg"
   xmlns:svg="http://www.w3.org/2000/svg">
  <defs
     id="defs8" />
  <sodipodi:namedview
     id="namedview6"
     pagecolor="#ffffff"
     bordercolor="#000000"
     borderopacity="0.25"
     inkscape:showpageshadow="2"
     inkscape:pageopacity="0.0"
     inkscape:pagecheckerboard="0"
     inkscape:deskcolor="#d1d1d1"
     showgrid="false"
     inkscape:zoom="7.3821031"
     inkscape:cx="10.430632"
     inkscape:cy="20.590338"
     inkscape:window-width="1366"
     inkscape:window-height="699"
     inkscape:window-x="0"
     inkscape:window-y="0"
     inkscape:window-maximized="1"
     inkscape:current-layer="svg4" />
  <circle
     style="fill:#ffffff;stroke-width:49.9999;stroke-linecap:round;stroke-linejoin:round"
     id="path1361"
     cx="16"
     cy="16"
     r="16" />
  <path
     d="M 16,4.0000001 C 9.3937504,4.0000001 4,9.3937507 4,16.000001 4,22.60625 9.3937504,28 16,28 22.60625,28 28,22.60625 28,16.000001 28,9.3937507 22.60625,4.0000001 16,4.0000001 Z m 0,3.2000002 c 0.412499,0 0.80625,0.0375 1.2,0.0875 0.30625,0.4187488 0.612499,0.95 0.88125,1.6437488 0.16875,0.4437504 0.325,0.9375008 0.4625,1.4687509 h -5.0875 c 0.1375,-0.5312493 0.29375,-1.0249997 0.4625,-1.4687501 0.268751,-0.6937488 0.575,-1.225 0.88125,-1.6437488 0.39375,-0.05 0.787501,-0.0875 1.2,-0.087501 z m -3.337501,0.65 c -0.08125,0.175 -0.168749,0.325 -0.237499,0.5062496 C 12.187501,8.9750003 11.99375,9.6687507 11.81875,10.4 H 9.2312496 C 10.14375,9.2937507 11.30625,8.4062499 12.662499,7.8500003 Z m 6.675002,0 C 20.69375,8.4062499 21.85625,9.2937507 22.76875,10.4 h -2.5875 C 20.00625,9.6687507 19.812499,8.9750003 19.575,8.3562499 19.506248,8.1750003 19.418744,8.0250003 19.337501,7.8500003 Z M 8.1687504,12 H 11.5 c -0.15625,1.00625 -0.237501,2.08125 -0.26875,3.200001 H 7.2624992 C 7.3624992,14.05625 7.6687504,12.975 8.1687504,12 Z m 4.9499996,0 h 5.7625 c 0.1625,0.987501 0.25,2.068751 0.2875,3.200001 h -6.3375 c 0.0375,-1.13125 0.125,-2.2125 0.2875,-3.200001 z M 20.5,12 h 3.33125 c 0.5,0.975 0.80625,2.05625 0.90625,3.200001 H 20.76875 C 20.737502,14.08125 20.656254,13.00625 20.5,12 Z M 7.2624992,16.800001 H 11.23125 C 11.262499,17.918751 11.34375,19 11.5,20 H 8.1687504 c -0.5,-0.975 -0.8062512,-2.056249 -0.9062512,-3.199999 z m 5.5687508,0 h 6.3375 C 19.13125,17.93125 19.04375,19.012499 18.88125,20 h -5.7625 c -0.1625,-0.987501 -0.25,-2.06875 -0.2875,-3.199999 z m 7.9375,0 H 24.7375 C 24.6375,17.943751 24.33125,19.025 23.83125,20 H 20.5 c 0.15626,-1 0.2375,-2.081249 0.26875,-3.199999 z M 9.2312496,21.6 H 11.81875 c 0.175,0.73125 0.368751,1.425 0.60625,2.037502 C 12.49375,23.825 12.58125,23.975 12.662499,24.15 11.30625,23.59375 10.14375,22.70625 9.2312496,21.6 Z m 4.2250004,0 h 5.0875 c -0.1375,0.53125 -0.29375,1.025 -0.4625,1.46875 -0.268751,0.69375 -0.575,1.225 -0.88125,1.64375 -0.39375,0.05 -0.79375,0.0875 -1.2,0.0875 -0.40625,0 -0.80625,-0.0375 -1.2,-0.0875 -0.30625,-0.41875 -0.612499,-0.95 -0.88125,-1.64375 C 13.75,22.625 13.59375,22.13125 13.45625,21.6 Z m 6.725,0 h 2.5875 c -0.9125,1.10625 -2.075,1.99375 -3.431249,2.55 C 19.418749,23.975 19.50625,23.825 19.575,23.637502 19.812499,23.025 20.00625,22.33125 20.18125,21.6 Z m 0,0"
     id="path2"
     style="stroke-width:0.999996" />
</svg>
